<?xml version="1.0" encoding="UTF-8" standalone="no"?>
<svg
   xmlns:dc="http://purl.org/dc/elements/1.1/"
   xmlns:cc="http://creativecommons.org/ns#"
   xmlns:rdf="http://www.w3.org/1999/02/22-rdf-syntax-ns#"
   xmlns:svg="http://www.w3.org/2000/svg"
   xmlns="http://www.w3.org/2000/svg"
   viewBox="0 0 1929.3333 832"
   height="832"
   width="1929.3333"
   xml:space="preserve"
   id="svg28"
   version="1.1"><metadata
     id="metadata34"><rdf:RDF><cc:Work
         rdf:about=""><dc:format>image/svg+xml</dc:format><dc:type
           rdf:resource="http://purl.org/dc/dcmitype/StillImage" /><dc:title></dc:title></cc:Work></rdf:RDF></metadata><defs
     id="defs32"><clipPath
       id="clipPath46"
       clipPathUnits="userSpaceOnUse"><path
         id="path44"
         d="M 36,588 H 1410.645 V 36 H 36 Z" /></clipPath></defs><g
     transform="matrix(1.3333333,0,0,-1.3333333,0,832)"
     id="g36"><g
       id="g38" /><g
       id="g40"><g
         clip-path="url(#clipPath46)"
         id="g42"><path
           id="path48"
           style="fill:#ffffff;fill-opacity:1;fill-rule:nonzero;stroke:none"
           d="M 36,588 H 1410.645 V 36 H 36 Z" /><path
           id="path50"
           style="fill:none;stroke:#000000;stroke-width:2;stroke-linecap:butt;stroke-linejoin:round;stroke-miterlimit:10;stroke-dasharray:none;stroke-opacity:1"
           d="m 480.645,576 h 226 v -75 h -226 z" /><text
           id="text54"
           style="font-variant:normal;font-size:14.0002px;font-family:NimbusRomNo9L;-inkscape-font-specification:NimbusRomNo9L-Regu;writing-mode:lr-tb;fill:#000000;fill-opacity:1;fill-rule:nonzero;stroke:none"
           transform="matrix(1,0,0,-1,539.14453,560.80078)"><tspan
             id="tspan52"
             y="0"
             x="0 6.7481174 10.500183 16.506289 26.250458 32.998573 37.506653 42.000732 48.006836 59.249031 65.255135 70.505226 74.257294 83.259453 89.251556 94.501648 101.26376 105.00183">view_frames Result</tspan></text><path
           id="path56"
           style="fill:none;stroke:#000000;stroke-width:1;stroke-linecap:butt;stroke-linejoin:round;stroke-miterlimit:10;stroke-dasharray:none;stroke-opacity:1"
           d="m 625.043,454 c 0,-9.941 -14.059,-18 -31.398,-18 -17.34,0 -31.395,8.059 -31.395,18 0,9.941 14.055,18 31.395,18 17.339,0 31.398,-8.059 31.398,-18" /><text
           id="text60"
           style="font-variant:normal;font-size:14.0002px;font-family:NimbusRomNo9L;-inkscape-font-specification:NimbusRomNo9L-Regu;writing-mode:lr-tb;fill:#000000;fill-opacity:1;fill-rule:nonzero;stroke:none"
           transform="matrix(1,0,0,-1,577.64453,450.30078)"><tspan
             id="tspan58"
             y="0"
             x="0 6.7481174 13.496235 20.244352">odom</tspan></text><path
           id="path62"
           style="fill:none;stroke:#000000;stroke-width:1;stroke-linecap:butt;stroke-linejoin:round;stroke-miterlimit:10;stroke-dasharray:none;stroke-opacity:1"
           d="m 655.637,322 c 0,-9.941 -27.754,-18 -61.992,-18 -34.235,0 -61.989,8.059 -61.989,18 0,9.941 27.754,18 61.989,18 34.238,0 61.992,-8.059 61.992,-18" /><text
           id="text66"
           style="font-variant:normal;font-size:14.0002px;font-family:NimbusRomNo9L;-inkscape-font-specification:NimbusRomNo9L-Regu;writing-mode:lr-tb;fill:#000000;fill-opacity:1;fill-rule:nonzero;stroke:none"
           transform="matrix(1,0,0,-1,554.14453,318.30078)"><tspan
             id="tspan64"
             y="0"
             x="0 6.7481174 12.754222 18.004314 23.996418 30.758535 35.252613 42.000732 48.748848 52.500916 59.249031 63.757111 67.509178 74.257294">base_footprint</tspan></text><path
           id="path68"
           style="fill:none;stroke:#000000;stroke-width:1;stroke-linecap:butt;stroke-linejoin:round;stroke-miterlimit:10;stroke-dasharray:none;stroke-opacity:1"
           d="m 593.645,435.738 c 0,-21.758 0,-59.414 0,-85.176" /><path
           id="path70"
           style="fill:#000000;fill-opacity:1;fill-rule:nonzero;stroke:#000000;stroke-width:1;stroke-linecap:butt;stroke-linejoin:round;stroke-miterlimit:10;stroke-dasharray:none;stroke-opacity:1"
           d="m 597.145,350.336 -3.5,-10 -3.5,10 z" /><text
           id="text80"
           style="font-variant:normal;font-size:14.0002px;font-family:NimbusRomNo9L;-inkscape-font-specification:NimbusRomNo9L-Regu;writing-mode:lr-tb;fill:#000000;fill-opacity:1;fill-rule:nonzero;stroke:none"
           transform="matrix(1,0,0,-1,642.64453,406.80078)"><tspan
             id="tspan72"
             y="0"
             x="0 9.0021572 13.496235 20.258352 26.250458 32.998573 39.004681 44.996784 50.246876 53.99894 60.005047 64.499123 68.25119 72.003258 75.755318 80.249397 87.011513 93.759636 100.50775 104.25982 111.00793 114.76 121.50812 127.51422 133.50633 137.25839 141.01045 147.01656 153.00867 156.76073 160.5128 167.26091 174.00903 180.75716 187.50526 194.26738 201.0155">Broadcaster: /robot_localization_odom</tspan><tspan
             id="tspan74"
             y="15.000001"
             x="39.000004 48.744175 55.50629 61.498394 66.006477 71.998581 78.746696 84.7528 88.504868 92.998947 99.005051 102.75712 108.74922 112.50128 116.25335 123.00146 129.74959 133.50165 140.24977 147.01189 153.76001 157.51207 167.25624">Average rate: 50.028 Hz</tspan><tspan
             id="tspan76"
             y="30.000004"
             x="-49 -36.245777 -29.49766 -24.247568 -20.495502 -16.743439 -12.249359 -6.2432547 -0.25115037 5.7549543 12.503072 16.255136 20.007202 23.759268 28.253345 34.259453 41.007568 46.25766 50.75174 57.513855 62.007935 73.26413 77.002197 80.754265 87.50238 94.264496 101.01261 107.76073 114.50885 121.25697 128.00508 134.7672 141.51532 148.26344 152.0155 158.76363 165.51173 172.25986 176.01192 180.52 184.27206 191.02019 194.77225 201.52037 208.26848 215.0166 218.76866 224.01875 230.02486 236.01697 239.76903 246.51715 250.26921 257.01733">Most recent transform: 1612148730.638 ( 0.031 sec old)</tspan><tspan
             id="tspan78"
             y="45.000004"
             x="40 49.002155 55.750275 60.25835 64.752434 70.758537 75.252617 79.004677 82.756744 88.748848 95.496964 102.25909 106.01115 112.75927 116.51133 120.2494 127.01151 130.74959 137.5117 144.25981 151.00793 154.75999 160.01009 166.0022">Buffer length: 4.957 sec</tspan></text><path
           id="path82"
           style="fill:none;stroke:#000000;stroke-width:1;stroke-linecap:butt;stroke-linejoin:round;stroke-miterlimit:10;stroke-dasharray:none;stroke-opacity:1"
           d="m 638.039,190 c 0,-9.941 -19.875,-18 -44.394,-18 -24.516,0 -44.391,8.059 -44.391,18 0,9.941 19.875,18 44.391,18 24.519,0 44.394,-8.059 44.394,-18" /><text
           id="text86"
           style="font-variant:normal;font-size:14.0002px;font-family:NimbusRomNo9L;-inkscape-font-specification:NimbusRomNo9L-Regu;writing-mode:lr-tb;fill:#000000;fill-opacity:1;fill-rule:nonzero;stroke:none"
           transform="matrix(1,0,0,-1,567.64453,186.30078)"><tspan
             id="tspan84"
             y="0"
             x="0 6.7481174 12.754222 18.004314 23.996418 30.758535 34.496601 38.248665 44.996784">base_link</tspan></text><path
           id="path88"
           style="fill:none;stroke:#000000;stroke-width:1;stroke-linecap:butt;stroke-linejoin:round;stroke-miterlimit:10;stroke-dasharray:none;stroke-opacity:1"
           d="m 593.645,303.738 c 0,-21.758 0,-59.414 0,-85.176" /><path
           id="path90"
           style="fill:#000000;fill-opacity:1;fill-rule:nonzero;stroke:#000000;stroke-width:1;stroke-linecap:butt;stroke-linejoin:round;stroke-miterlimit:10;stroke-dasharray:none;stroke-opacity:1"
           d="m 597.145,218.336 -3.5,-10 -3.5,10 z" /><text
           id="text100"
           style="font-variant:normal;font-size:14.0002px;font-family:NimbusRomNo9L;-inkscape-font-specification:NimbusRomNo9L-Regu;writing-mode:lr-tb;fill:#000000;fill-opacity:1;fill-rule:nonzero;stroke:none"
           transform="matrix(1,0,0,-1,652.64453,274.80078)"><tspan
             id="tspan92"
             y="0"
             x="0 9.0021572 13.496235 20.258352 26.250458 32.998573 39.004681 44.996784 50.246876 53.99894 60.005047 64.499123 68.25119 72.003258 75.755318 80.249397 87.011513 93.759636 100.50775 104.25982 111.00793 116.25803 120.01009 126.0022 129.75426 135.76036 142.50848 149.25661 156.00471 162.76683 166.5049 170.25697 175.50706 182.25517 188.26128">Broadcaster: /robot_state_publisher</tspan><tspan
             id="tspan94"
             y="15.000001"
             x="18.999998 28.744167 35.506287 41.49839 46.006466 51.998573 58.746689 64.752792 68.50486 72.99894 79.005043 82.757111 88.749214 92.501282 96.253342 103.00146 109.74958 116.5117 123.25981 130.00793 133.75999 140.50812 147.25623 154.00435 157.75641 167.51459">Average rate: 10000.000 Hz</tspan><tspan
             id="tspan96"
             y="30.000004"
             x="-58.999996 -46.245773 -39.497658 -34.247566 -30.495499 -26.743435 -22.249355 -16.243252 -10.251146 -4.2450418 2.5030756 6.2551413 10.007206 13.759272 18.253349 24.259455 31.007572 36.257664 40.751743 47.513859 52.007938 63.264133 67.002197 70.754265 77.50238 81.254448 88.016563 94.764687 101.5128 105.26487 109.75894 113.51101 120.25912 127.00725 133.76936 140.51749 147.26559 154.01372 160.76184 167.50995 174.27206 181.02019 184.77225 191.52037 198.26849 205.0166 208.76868 214.01877 220.02487 226.01697 229.76904 236.51715 240.26923 247.01733">Most recent transform: 0.000 ( 1612148730.669 sec old)</tspan><tspan
             id="tspan98"
             y="45.000004"
             x="30.000002 39.002159 45.750278 50.258354 54.752434 60.758537 65.252617 69.004684 72.756744 78.748856 85.496971 92.259087 96.011154 102.75927 106.51134 110.2494 117.01152 120.74959 127.5117 134.25983 141.00793 144.76001 150.0101 156.0022">Buffer length: 0.000 sec</tspan></text><path
           id="path102"
           style="fill:none;stroke:#000000;stroke-width:1;stroke-linecap:butt;stroke-linejoin:round;stroke-miterlimit:10;stroke-dasharray:none;stroke-opacity:1"
           d="m 145.438,58 c 0,-9.941 -23.637,-18 -52.793,-18 -29.157,0 -52.79,8.059 -52.79,18 0,9.941 23.633,18 52.79,18 29.156,0 52.793,-8.059 52.793,-18" /><text
           id="text106"
           style="font-variant:normal;font-size:14.0002px;font-family:NimbusRomNo9L;-inkscape-font-specification:NimbusRomNo9L-Regu;writing-mode:lr-tb;fill:#000000;fill-opacity:1;fill-rule:nonzero;stroke:none"
           transform="matrix(1,0,0,-1,60.144531,54.300781)"><tspan
             id="tspan104"
             y="0"
             x="0 6.7481174 12.754222 18.746326 25.508444 32.256561 42.000732 48.748848 54.754955 60.747059">back_wheel</tspan></text><path
           id="path108"
           style="fill:none;stroke:#000000;stroke-width:1;stroke-linecap:butt;stroke-linejoin:round;stroke-miterlimit:10;stroke-dasharray:none;stroke-opacity:1"
           d="M 549.43,189.07 C 434.348,188.816 132.211,185.152 100.645,154 83.211,136.793 83.262,107.73 86.406,86.273" /><path
           id="path110"
           style="fill:#000000;fill-opacity:1;fill-rule:nonzero;stroke:#000000;stroke-width:1;stroke-linecap:butt;stroke-linejoin:round;stroke-miterlimit:10;stroke-dasharray:none;stroke-opacity:1"
           d="M 89.902,86.598 88.195,76.141 83.008,85.379 Z" /><text
           id="text120"
           style="font-variant:normal;font-size:14.0002px;font-family:NimbusRomNo9L;-inkscape-font-specification:NimbusRomNo9L-Regu;writing-mode:lr-tb;fill:#000000;fill-opacity:1;fill-rule:nonzero;stroke:none"
           transform="matrix(1,0,0,-1,159.64453,142.80078)"><tspan
             id="tspan112"
             y="0"
             x="0 9.0021572 13.496235 20.258352 26.250458 32.998573 39.004681 44.996784 50.246876 53.99894 60.005047 64.499123 68.25119 72.003258 75.755318 80.249397 87.011513 93.759636 100.50775 104.25982 111.00793 116.25803 120.01009 126.0022 129.75426 135.76036 142.50848 149.25661 156.00471 162.76683 166.5049 170.25697 175.50706 182.25517 188.26128">Broadcaster: /robot_state_publisher</tspan><tspan
             id="tspan114"
             y="15.000001"
             x="18.999998 28.744167 35.506287 41.49839 46.006466 51.998573 58.746689 64.752792 68.50486 72.99894 79.005043 82.757111 88.749214 92.501282 96.253342 103.00146 109.74958 116.5117 123.25981 130.00793 133.75999 140.50812 147.25623 154.00435 157.75641 167.51459">Average rate: 10000.000 Hz</tspan><tspan
             id="tspan116"
             y="30.000004"
             x="-58.999996 -46.245773 -39.497658 -34.247566 -30.495499 -26.743435 -22.249355 -16.243252 -10.251146 -4.2450418 2.5030756 6.2551413 10.007206 13.759272 18.253349 24.259455 31.007572 36.257664 40.751743 47.513859 52.007938 63.264133 67.002197 70.754265 77.50238 81.254448 88.016563 94.764687 101.5128 105.26487 109.75894 113.51101 120.25912 127.00725 133.76936 140.51749 147.26559 154.01372 160.76184 167.50995 174.27206 181.02019 184.77225 191.52037 198.26849 205.0166 208.76868 214.01877 220.02487 226.01697 229.76904 236.51715 240.26923 247.01733">Most recent transform: 0.000 ( 1612148730.669 sec old)</tspan><tspan
             id="tspan118"
             y="45.000004"
             x="30.000002 39.002159 45.750278 50.258354 54.752434 60.758537 65.252617 69.004684 72.756744 78.748856 85.496971 92.259087 96.011154 102.75927 106.51134 110.2494 117.01152 120.74959 127.5117 134.25983 141.00793 144.76001 150.0101 156.0022">Buffer length: 0.000 sec</tspan></text><path
           id="path122"
           style="fill:none;stroke:#000000;stroke-width:1;stroke-linecap:butt;stroke-linejoin:round;stroke-miterlimit:10;stroke-dasharray:none;stroke-opacity:1"
           d="m 489.734,58 c 0,-9.941 -28.246,-18 -63.089,-18 -34.844,0 -63.09,8.059 -63.09,18 0,9.941 28.246,18 63.09,18 34.843,0 63.089,-8.059 63.089,-18" /><text
           id="text126"
           style="font-variant:normal;font-size:14.0002px;font-family:NimbusRomNo9L;-inkscape-font-specification:NimbusRomNo9L-Regu;writing-mode:lr-tb;fill:#000000;fill-opacity:1;fill-rule:nonzero;stroke:none"
           transform="matrix(1,0,0,-1,386.14453,54.300781)"><tspan
             id="tspan124"
             y="0"
             x="0 6.7481174 12.754222 18.004314 23.996418 30.758535 34.496601 45.752796 52.500916 59.249031 63.001099 66.753166 73.501282">base_imu_link</tspan></text><path
           id="path128"
           style="fill:none;stroke:#000000;stroke-width:1;stroke-linecap:butt;stroke-linejoin:round;stroke-miterlimit:10;stroke-dasharray:none;stroke-opacity:1"
           d="M 550.27,185.887 C 506.391,181.73 442.91,172.621 427.645,154 412.348,135.34 414.207,106.988 418.609,86.109" /><path
           id="path130"
           style="fill:#000000;fill-opacity:1;fill-rule:nonzero;stroke:#000000;stroke-width:1;stroke-linecap:butt;stroke-linejoin:round;stroke-miterlimit:10;stroke-dasharray:none;stroke-opacity:1"
           d="m 422.043,86.793 -1.055,-10.543 -5.75,8.902 z" /><text
           id="text140"
           style="font-variant:normal;font-size:14.0002px;font-family:NimbusRomNo9L;-inkscape-font-specification:NimbusRomNo9L-Regu;writing-mode:lr-tb;fill:#000000;fill-opacity:1;fill-rule:nonzero;stroke:none"
           transform="matrix(1,0,0,-1,486.64453,142.80078)"><tspan
             id="tspan132"
             y="0"
             x="0 9.0021572 13.496235 20.258352 26.250458 32.998573 39.004681 44.996784 50.246876 53.99894 60.005047 64.499123 68.25119 72.003258 75.755318 80.249397 87.011513 93.759636 100.50775 104.25982 111.00793 116.25803 120.01009 126.0022 129.75426 135.76036 142.50848 149.25661 156.00471 162.76683 166.5049 170.25697 175.50706 182.25517 188.26128">Broadcaster: /robot_state_publisher</tspan><tspan
             id="tspan134"
             y="15.000001"
             x="18.999998 28.744167 35.506287 41.49839 46.006466 51.998573 58.746689 64.752792 68.50486 72.99894 79.005043 82.757111 88.749214 92.501282 96.253342 103.00146 109.74958 116.5117 123.25981 130.00793 133.75999 140.50812 147.25623 154.00435 157.75641 167.51459">Average rate: 10000.000 Hz</tspan><tspan
             id="tspan136"
             y="30.000004"
             x="-58.999996 -46.245773 -39.497658 -34.247566 -30.495499 -26.743435 -22.249355 -16.243252 -10.251146 -4.2450418 2.5030756 6.2551413 10.007206 13.759272 18.253349 24.259455 31.007572 36.257664 40.751743 47.513859 52.007938 63.264133 67.002197 70.754265 77.50238 81.254448 88.016563 94.764687 101.5128 105.26487 109.75894 113.51101 120.25912 127.00725 133.76936 140.51749 147.26559 154.01372 160.76184 167.50995 174.27206 181.02019 184.77225 191.52037 198.26849 205.0166 208.76868 214.01877 220.02487 226.01697 229.76904 236.51715 240.26923 247.01733">Most recent transform: 0.000 ( 1612148730.669 sec old)</tspan><tspan
             id="tspan138"
             y="45.000004"
             x="30.000002 39.002159 45.750278 50.258354 54.752434 60.758537 65.252617 69.004684 72.756744 78.748856 85.496971 92.259087 96.011154 102.75927 106.51134 110.2494 117.01152 120.74959 127.5117 134.25983 141.00793 144.76001 150.0101 156.0022">Buffer length: 0.000 sec</tspan></text><path
           id="path142"
           style="fill:none;stroke:#000000;stroke-width:1;stroke-linecap:butt;stroke-linejoin:round;stroke-miterlimit:10;stroke-dasharray:none;stroke-opacity:1"
           d="m 808.836,58 c 0,-9.941 -21.574,-18 -48.191,-18 -26.614,0 -48.192,8.059 -48.192,18 0,9.941 21.578,18 48.192,18 26.617,0 48.191,-8.059 48.191,-18" /><text
           id="text146"
           style="font-variant:normal;font-size:14.0002px;font-family:NimbusRomNo9L;-inkscape-font-specification:NimbusRomNo9L-Regu;writing-mode:lr-tb;fill:#000000;fill-opacity:1;fill-rule:nonzero;stroke:none"
           transform="matrix(1,0,0,-1,731.64453,54.300781)"><tspan
             id="tspan144"
             y="0"
             x="0 3.7520654 9.7441702 14.252249 18.004314 24.752432 34.496601 41.25872 47.250824 53.256927">left_wheel</tspan></text><path
           id="path148"
           style="fill:none;stroke:#000000;stroke-width:1;stroke-linecap:butt;stroke-linejoin:round;stroke-miterlimit:10;stroke-dasharray:none;stroke-opacity:1"
           d="m 635.508,183.824 c 37.535,-5.492 88.828,-15.383 103.137,-29.824 17.531,-17.695 22.179,-46.434 22.96,-67.676" /><path
           id="path150"
           style="fill:#000000;fill-opacity:1;fill-rule:nonzero;stroke:#000000;stroke-width:1;stroke-linecap:butt;stroke-linejoin:round;stroke-miterlimit:10;stroke-dasharray:none;stroke-opacity:1"
           d="m 765.105,86.328 -3.39,-10.035 -3.61,9.961 z" /><text
           id="text160"
           style="font-variant:normal;font-size:14.0002px;font-family:NimbusRomNo9L;-inkscape-font-specification:NimbusRomNo9L-Regu;writing-mode:lr-tb;fill:#000000;fill-opacity:1;fill-rule:nonzero;stroke:none"
           transform="matrix(1,0,0,-1,820.64453,142.80078)"><tspan
             id="tspan152"
             y="0"
             x="0 9.0021572 13.496235 20.258352 26.250458 32.998573 39.004681 44.996784 50.246876 53.99894 60.005047 64.499123 68.25119 72.003258 75.755318 80.249397 87.011513 93.759636 100.50775 104.25982 111.00793 116.25803 120.01009 126.0022 129.75426 135.76036 142.50848 149.25661 156.00471 162.76683 166.5049 170.25697 175.50706 182.25517 188.26128">Broadcaster: /robot_state_publisher</tspan><tspan
             id="tspan154"
             y="15.000001"
             x="18.999998 28.744167 35.506287 41.49839 46.006466 51.998573 58.746689 64.752792 68.50486 72.99894 79.005043 82.757111 88.749214 92.501282 96.253342 103.00146 109.74958 116.5117 123.25981 130.00793 133.75999 140.50812 147.25623 154.00435 157.75641 167.51459">Average rate: 10000.000 Hz</tspan><tspan
             id="tspan156"
             y="30.000004"
             x="-58.999996 -46.245773 -39.497658 -34.247566 -30.495499 -26.743435 -22.249355 -16.243252 -10.251146 -4.2450418 2.5030756 6.2551413 10.007206 13.759272 18.253349 24.259455 31.007572 36.257664 40.751743 47.513859 52.007938 63.264133 67.002197 70.754265 77.50238 81.254448 88.016563 94.764687 101.5128 105.26487 109.75894 113.51101 120.25912 127.00725 133.76936 140.51749 147.26559 154.01372 160.76184 167.50995 174.27206 181.02019 184.77225 191.52037 198.26849 205.0166 208.76868 214.01877 220.02487 226.01697 229.76904 236.51715 240.26923 247.01733">Most recent transform: 0.000 ( 1612148730.669 sec old)</tspan><tspan
             id="tspan158"
             y="45.000004"
             x="30.000002 39.002159 45.750278 50.258354 54.752434 60.758537 65.252617 69.004684 72.756744 78.748856 85.496971 92.259087 96.011154 102.75927 106.51134 110.2494 117.01152 120.74959 127.5117 134.25983 141.00793 144.76001 150.0101 156.0022">Buffer length: 0.000 sec</tspan></text><path
           id="path162"
           style="fill:none;stroke:#000000;stroke-width:1;stroke-linecap:butt;stroke-linejoin:round;stroke-miterlimit:10;stroke-dasharray:none;stroke-opacity:1"
           d="m 1147.438,58 c 0,-9.941 -23.637,-18 -52.793,-18 -29.157,0 -52.79,8.059 -52.79,18 0,9.941 23.633,18 52.79,18 29.156,0 52.793,-8.059 52.793,-18" /><text
           id="text166"
           style="font-variant:normal;font-size:14.0002px;font-family:NimbusRomNo9L;-inkscape-font-specification:NimbusRomNo9L-Regu;writing-mode:lr-tb;fill:#000000;fill-opacity:1;fill-rule:nonzero;stroke:none"
           transform="matrix(1,0,0,-1,1062.1445,54.300781)"><tspan
             id="tspan164"
             y="0"
             x="0 4.4940782 8.2461433 14.994262 21.75638 25.508444 32.256561 42.000732 48.748848 54.754955 60.747059">right_wheel</tspan></text><path
           id="path168"
           style="fill:none;stroke:#000000;stroke-width:1;stroke-linecap:butt;stroke-linejoin:round;stroke-miterlimit:10;stroke-dasharray:none;stroke-opacity:1"
           d="m 638,188.707 c 112.445,-1.148 402.066,-6.812 434.645,-34.707 19.144,-16.391 23.46,-45.836 23.726,-67.617" /><path
           id="path170"
           style="fill:#000000;fill-opacity:1;fill-rule:nonzero;stroke:#000000;stroke-width:1;stroke-linecap:butt;stroke-linejoin:round;stroke-miterlimit:10;stroke-dasharray:none;stroke-opacity:1"
           d="m 1099.863,86.043 -3.656,-9.941 -3.34,10.05 z" /><text
           id="text182"
           style="font-variant:normal;font-size:14.0002px;font-family:NimbusRomNo9L;-inkscape-font-specification:NimbusRomNo9L-Regu;writing-mode:lr-tb;fill:#000000;fill-opacity:1;fill-rule:nonzero;stroke:none"
           transform="matrix(1,0,0,-1,1154.6445,142.80078)"><tspan
             id="tspan172"
             y="0"
             x="0 9.0021572 13.496235 20.258352 26.250458 32.998573 39.004681 44.996784 50.246876 53.99894 60.005047 64.499123 68.25119 72.003258 75.755318 80.249397 87.011513 93.759636 100.50775 104.25982 111.00793 116.25803 120.01009 126.0022 129.75426 135.76036 142.50848 149.25661 156.00471 162.76683 166.5049 170.25697 175.50706 182.25517 188.26128">Broadcaster: /robot_state_publisher</tspan><tspan
             id="tspan174"
             y="15.000001"
             x="18.999998 28.744167 35.506287 41.49839 46.006466 51.998573 58.746689 64.752792 68.50486 72.99894 79.005043 82.757111 88.749214 92.501282 96.253342 103.00146 109.74958 116.5117 123.25981 130.00793 133.75999 140.50812 147.25623 154.00435 157.75641 167.51459">Average rate: 10000.000 Hz</tspan><tspan
             id="tspan176"
             y="30.000004"
             x="-58.999996 -46.245773 -39.497658 -34.247566 -30.495499 -26.743435 -22.249355 -16.243252 -10.251146 -4.2450418 2.5030756 6.2551413 10.007206 13.759272 18.253349 24.259455 31.007572 36.257664 40.751743 47.513859 52.007938 63.264133 67.002197 70.754265 77.50238 81.254448 88.016563 94.764687 101.5128 105.26487 109.75894 113.51101 120.25912 127.00725 133.76936 140.51749 147.26559 154.01372 160.76184 167.50995 174.27206 181.02019 184.77225 191.52037 198.26849 205.0166 208.76868 214.01877 220.02487 226.01697 229.76904 236.51715 240.26923 247.01733">Most recent transform: 0.000 ( 1612148730.669 sec old)</tspan><tspan
             id="tspan178"
             y="45.000004"
             x="30.000002 39.002159 45.750278 50.258354 54.752434 60.758537 65.252617 69.004684 72.756744 78.748856 85.496971 92.259087 96.011154 102.75927 106.51134 110.2494 117.01152 120.74959 127.5117 134.25983 141.00793 144.76001 150.0101 156.0022">Buffer length: 0.000 sec</tspan><tspan
             id="tspan180"
             y="-380.5"
             x="-657.5 -648.49786 -642.50574 -636.49963 -629.75153 -625.24341 -618.4953 -612.50323 -605.74109 -602.00305 -595.99695 -592.24487 -588.4928 -584.74072 -580.98865 -569.74646 -563.74036 -559.98828 -556.23621 -549.4881 -542.73999 -535.99188 -529.24377 -522.49567 -515.7475 -508.98541 -502.2373 -495.48917 -488.74106 -484.98898 -478.24088 -471.49277">Recorded at time: 1612148730.669</tspan></text></g></g></g></svg>
